<?xml version="1.0" encoding="UTF-8" standalone="no"?>
<!-- Created with Inkscape (http://www.inkscape.org/) -->

<svg
   xmlns:dc="http://purl.org/dc/elements/1.1/"
   xmlns:cc="http://creativecommons.org/ns#"
   xmlns:rdf="http://www.w3.org/1999/02/22-rdf-syntax-ns#"
   xmlns:svg="http://www.w3.org/2000/svg"
   xmlns="http://www.w3.org/2000/svg"
   xmlns:sodipodi="http://sodipodi.sourceforge.net/DTD/sodipodi-0.dtd"
   xmlns:inkscape="http://www.inkscape.org/namespaces/inkscape"
   width="300"
   height="300"
   viewBox="0 0 300 300"
   version="1.1"
   id="svg2216"
   inkscape:version="0.92.3 (2405546, 2018-03-11)"
   sodipodi:docname="_NEW-MASTER-TEMPLATE-FRAME.svg">
  <defs
     id="defs2210" />
  <sodipodi:namedview
     id="base"
     pagecolor="#ffffff"
     bordercolor="#666666"
     borderopacity="1.0"
     inkscape:pageopacity="0.0"
     inkscape:pageshadow="2"
     inkscape:zoom="1.4"
     inkscape:cx="130.38644"
     inkscape:cy="140.62169"
     inkscape:document-units="px"
     inkscape:current-layer="layer1"
     showgrid="false"
     units="px"
     inkscape:window-width="1280"
     inkscape:window-height="737"
     inkscape:window-x="-8"
     inkscape:window-y="-8"
     inkscape:window-maximized="1"
     fit-margin-top="10"
     fit-margin-left="10"
     fit-margin-bottom="10"
     fit-margin-right="10"
     inkscape:showpageshadow="false"
     scale-x="1" />
  <metadata
     id="metadata2213">
    <rdf:RDF>
      <cc:Work
         rdf:about="">
        <dc:format>image/svg+xml</dc:format>
        <dc:type
           rdf:resource="http://purl.org/dc/dcmitype/StillImage" />
        <dc:title></dc:title>
      </cc:Work>
    </rdf:RDF>
  </metadata>
  <g
     inkscape:label="Layer 1"
     inkscape:groupmode="layer"
     id="layer1"
     transform="translate(250.96359,-149.09241)">


<g
       id="g853"
       style="font-style:normal;font-variant:normal;font-weight:normal;font-stretch:normal;font-size:37.33333206px;line-height:1.25;font-family:'Open Sans';-inkscape-font-specification:'Open Sans, Normal';font-variant-ligatures:normal;font-variant-caps:normal;font-variant-numeric:normal;font-feature-settings:normal;text-align:start;letter-spacing:0px;word-spacing:0px;writing-mode:lr-tb;text-anchor:start;fill:#00adb5;fill-opacity:1;stroke:none"
       aria-label="j"
       transform="matrix(1.3648649,0,0,1.4986596,705.08077,-108.39007)">
      <path
         sodipodi:nodetypes="cccccccccccc"
         inkscape:connector-curvature="0"
         id="path851"
         style="font-style:normal;font-variant:normal;font-weight:normal;font-stretch:normal;font-size:333.33334351px;font-family:Monogramus;-inkscape-font-specification:Monogramus;fill:#00adb5;fill-opacity:1"
         d="m -652.91777,218.63575 15.45792,-9.83467 -0.0458,126.08489 -49.46745,-31.7009 -0.3238,-24.09267 h 15 v 16.16891 l 19.33333,11.83109 v -29 -15 -29 z" />
    </g>



<g
       transform="matrix(1.4242641,0,0,1.5343939,582.72212,371.94831)"
       id="g849"
       style="font-style:normal;font-variant:normal;font-weight:normal;font-stretch:normal;font-size:37.33333206px;line-height:1.25;font-family:'Open Sans';-inkscape-font-specification:'Open Sans, Normal';font-variant-ligatures:normal;font-variant-caps:normal;font-variant-numeric:normal;font-feature-settings:normal;text-align:start;letter-spacing:0px;word-spacing:0px;writing-mode:lr-tb;text-anchor:start;fill:#00adb5;fill-opacity:1;stroke:none"
       aria-label="d">
      <path
         sodipodi:nodetypes="ccccccccccccccccccccc"
         inkscape:connector-curvature="0"
         id="path847"
         style="font-style:normal;font-variant:normal;font-weight:normal;font-stretch:normal;font-size:333.33334351px;font-family:Monograma;-inkscape-font-specification:Monograma;fill:#00adb5;fill-opacity:1"
         d="m -511.42101,-117.9989 c 13.90689,-8.23256 22.84993,-14.9871 31.96944,-20.63861 12.92714,8.47209 20.1313,12.91635 31.86036,20.58101 l 0.0621,141.442167 c -10.1667,5.27721 -16.83045,10.998838 -31.94028,20.285091 -14.37261,-9.153535 -22.27143,-14.544969 -32.00299,-20.813828 l 0.17553,-8.764524 v -0.333334 h 0.33333 l -0.33333,-0.333333 5.33333,-3.333334 V -104.9076 l -5.33333,-3.33333 z m 47.45745,7.06888 c -6.90324,-3.32852 -9.2195,-4.61816 -15.66666,-8.08821 -3.40135,1.93901 -6.89644,3.65561 -10.66667,6.42154 V 12.336487 c 3.94722,3.684628 7.04887,5.259355 10.66667,8.530054 5.84507,-4.007073 10.18257,-6.41013 15.66666,-10.196721 z" />
    </g>



<g
       aria-label="s"
       style="font-style:normal;font-variant:normal;font-weight:normal;font-stretch:normal;font-size:37.33333206px;line-height:1.25;font-family:'Open Sans';-inkscape-font-specification:'Open Sans, Normal';font-variant-ligatures:normal;font-variant-caps:normal;font-variant-numeric:normal;font-feature-settings:normal;text-align:start;letter-spacing:0px;word-spacing:0px;writing-mode:lr-tb;text-anchor:start;fill:#00adb5;fill-opacity:1;stroke:none"
       id="g864"
       transform="matrix(1.3171141,0,0,1.5710456,635.96662,-126.2706)">
      <path
         d="m -460.20199,239.83024 -0.0949,19.5955 v 2 h -15 V 249.0924 c -4.22222,-3.33333 -7.88889,-6.11111 -11,-8.33333 -3.11111,-2.44445 -6,-4.55556 -8.66667,-6.33333 v 26.33333 2.33333 3.66667 h 34.66667 v 34.93826 l -49.71412,29.39088 0.0475,-36.66247 h 15 v 12.33333 c 2.66667,-1.77778 5.55556,-3.77778 8.66667,-6 3.11111,-2.44445 6.77778,-5.33334 11,-8.66667 v -0.66666 -4.66667 -5 h -34.66667 v -6 l 0.0949,-65.34421 z"
         style="font-style:normal;font-variant:normal;font-weight:normal;font-stretch:normal;font-size:333.33334351px;font-family:Monogramus;-inkscape-font-specification:Monogramus;fill:#00adb5;fill-opacity:1"
         id="path862"
         inkscape:connector-curvature="0"
         sodipodi:nodetypes="ccccccccccccccccccccccccc" />
    </g>




  </g>
</svg>
